<svg xmlns="http://www.w3.org/2000/svg" version="1.1" xmlns:xlink="http://www.w3.org/1999/xlink" xmlns:svgjs="http://svgjs.dev/svgjs" width="30" height="30" viewBox="0 0 128 128"><g transform="matrix(0.8046875,0,0,0.8046875,12.468605537211076,1.0319052419354833)"><svg viewBox="0 0 127 155" data-background-color="#ffffff" preserveAspectRatio="xMidYMid meet" height="156" width="128" xmlns="http://www.w3.org/2000/svg" xmlns:xlink="http://www.w3.org/1999/xlink"><g id="tight-bounds" transform="matrix(1,0,0,1,0.03870967741935516,0.25)"><svg viewBox="0 0 126.92258064516129 154.5" height="154.5" width="126.92258064516129"><g><svg viewBox="0 0 126.92258064516129 154.5" height="154.5" width="126.92258064516129"><g><svg viewBox="0 0 126.92258064516129 154.5" height="154.5" width="126.92258064516129"><g id="textblocktransform"><svg viewBox="0 0 126.92258064516129 154.5" height="154.5" width="126.92258064516129" id="textblock"><g><svg viewBox="0 0 126.92258064516129 154.5" height="154.5" width="126.92258064516129"><g transform="matrix(1,0,0,1,0,0)"><svg width="126.92258064516129" viewBox="0.63 -32.29 26.52 32.29" height="154.5" data-palette-color="#1d597d"><path d="M4.62 0L0.63 0 13.85-32.29 13.92-32.29 27.15 0 22.95 0 19.27-9.27 8.33-9.27 4.62 0ZM12.12-18.75L9.65-12.57 17.95-12.57 15.49-18.75Q15.03-19.93 14.62-21.08 14.2-22.22 13.78-23.82L13.78-23.82Q13.37-22.22 12.99-21.09 12.6-19.97 12.12-18.75L12.12-18.75Z" opacity="5" transform="matrix(1,0,0,1,0,0)" fill="#1d597d" class="wordmark-text-0" data-fill-palette-color="primary" id="text-0"></path></svg></g></svg></g></svg></g></svg></g><g></g></svg></g><defs></defs></svg><rect width="126.92258064516129" height="154.5" fill="none" stroke="none" visibility="hidden"></rect></g></svg></g></svg>